<svg xmlns="http://www.w3.org/2000/svg" viewBox="0 0 600 500" width="600" height="500" class="svg-canvas">
  <g transform="translate(-52,-132) scale(3.5)">
    <g>
      <path d="M69.33,55.89V40.22h-5.28c-17.52,0-31.72,14.2-31.72,31.72v16.96c0,5.65-4.58,10.24-10.24,10.24h-4.86v19.48    h4.86c5.65,0,10.24,4.58,10.24,10.24v16.96c0,17.52,14.2,31.72,31.72,31.72h5.28v-15.67h-4.97c-9.04,0-16.37-7.33-16.37-16.37    v-17.15c0-18.43-11.69-19.47-11.69-19.47s11.69-2.19,11.69-19.84V72.26c0-9.04,7.33-16.37,16.37-16.37H69.33z" fill="#F56C6C" stroke-width="0">
      </path>
    </g>
    <!-- } -->
    <g>
      <path d="M131.9,55.89V40.22h5.28c17.52,0,31.72,14.2,31.72,31.72v16.96c0,5.65,4.58,10.24,10.24,10.24H184v19.48    h-4.86c-5.65,0-10.24,4.58-10.24,10.24v16.96c0,17.52-14.2,31.72-31.72,31.72h-5.28v-15.67h4.97c9.04,0,16.37-7.33,16.37-16.37    v-17.15c0-18.43,11.69-19.47,11.69-19.47s-11.69-2.19-11.69-19.84V72.26c0-9.04-7.33-16.37-16.37-16.37H131.9z" fill="#F56C6C" stroke-width="0"/>
    </g>
    <!-- 左侧矩形 -->
    <g>
      <rect x="70.27" y="80.58" width="17.54" height="31.52" fill="#F56C6C" stroke-width="0"/>
    </g>
    <!-- 右侧矩形 -->
    <g>
      <rect x="113.42" y="80.58" width="17.54" height="31.52" fill="#F56C6C" stroke-width="0"/>
    </g>
    <!-- 笑 -->
    <path d="M130.94,131.1h-17.64c0,7.01-5.68,12.7-12.7,12.7s-12.7-5.68-12.7-12.7H70.28c0,0.14-0.01,0.29-0.01,0.43   c0,16.76,13.58,30.34,30.34,30.34s30.34-13.58,30.34-30.34C130.96,131.39,130.95,131.24,130.94,131.1z" fill="#F56C6C" stroke-width="0"/>
  </g>
</svg>