<svg xmlns="http://www.w3.org/2000/svg" viewBox="0 0 600 500" width="600" height="500" class="svg-canvas">
    <!--  -->
    <g transform="translate(-52,-132) scale(3.5)">
        <g>
            <path
                d="M69.33,55.89V40.22h-5.28c-17.52,0-31.72,14.2-31.72,31.72v16.96c0,5.65-4.58,10.24-10.24,10.24h-4.86v19.48    h4.86c5.65,0,10.24,4.58,10.24,10.24v16.96c0,17.52,14.2,31.72,31.72,31.72h5.28v-15.67h-4.97c-9.04,0-16.37-7.33-16.37-16.37    v-17.15c0-18.43-11.69-19.47-11.69-19.47s11.69-2.19,11.69-19.84V72.26c0-9.04,7.33-16.37,16.37-16.37H69.33z"
                fill="#F56C6C" stroke-width="0">
            </path>
        </g>
        <!-- } -->
        <g>
            <path
                d="M131.9,55.89V40.22h5.28c17.52,0,31.72,14.2,31.72,31.72v16.96c0,5.65,4.58,10.24,10.24,10.24H184v19.48    h-4.86c-5.65,0-10.24,4.58-10.24,10.24v16.96c0,17.52-14.2,31.72-31.72,31.72h-5.28v-15.67h4.97c9.04,0,16.37-7.33,16.37-16.37    v-17.15c0-18.43,11.69-19.47,11.69-19.47s-11.69-2.19-11.69-19.84V72.26c0-9.04-7.33-16.37-16.37-16.37H131.9z"
                fill="#F56C6C" stroke-width="0" />
        </g>
        <!-- 左侧矩形 -->
        <g>
            <rect x="70.27" y="80.58" width="17.54" height="31.52" fill="#F56C6C" stroke-width="0" />
        </g>
        <!-- 右侧矩形 -->
        <g>
            <rect x="113.42" y="80.58" width="17.54" height="31.52" fill="#F56C6C" stroke-width="0" />
        </g>
        <!-- 笑 -->
        <path
            d="M130.94,131.1h-17.64c0,7.01-5.68,12.7-12.7,12.7s-12.7-5.68-12.7-12.7H70.28c0,0.14-0.01,0.29-0.01,0.43   c0,16.76,13.58,30.34,30.34,30.34s30.34-13.58,30.34-30.34C130.96,131.39,130.95,131.24,130.94,131.1z"
            fill="#F56C6C" stroke-width="0" />
    </g>
    <!--  -->
    <g transform="translate(133,235) scale(0.6,1.3)">
        <g data-role="text" data-width="553.87222" data-height="83">
            <path
                d="M50.07-11.36L50.07-11.36Q50.07-8.17 48.52-5.61Q46.96-3.05 44.40-1.52Q41.83 0 38.65 0L38.65 0L15.31 0L15.31-7.00L38.65-7.00Q40.52-7.00 41.80-8.28Q43.08-9.56 43.08-11.36L43.08-11.36Q43.08-13.23 41.80-14.51Q40.52-15.79 38.65-15.79L38.65-15.79L15.31-15.79L15.31-22.79L32.97-22.79Q34.98-22.93 36.40-24.10Q37.82-25.28 37.82-27.01L37.82-27.01Q37.82-28.81 36.53-30.02Q35.25-31.24 33.45-31.24L33.45-31.24L12.05-31.24L12.05 0L4.99 0L4.99-38.23L33.45-38.23Q36.57-38.23 39.17-36.74Q41.76-35.25 43.29-32.69Q44.81-30.13 44.81-27.01L44.81-27.01Q44.81-25.56 44.43-24.24Q44.05-22.93 43.36-21.75L43.36-21.75Q46.33-20.43 48.20-17.63Q50.07-14.82 50.07-11.36Z"
                transform="translate(0 65) " fill="#F56C6C" stroke="#F56C6C" stroke-width="2" data-glyph-w="52.2913"
                data-glyph-h="83.52756000000001" data-glyph-ascender="66.00478" data-glyph-descender="-17.52278"
                data-kerning="0"></path>
            <path
                d="M48.55-38.23L48.55 0L41.63 0L41.63-10.46L14.96-10.46L14.96-17.52L41.63-17.52L41.63-31.24L23.62-31.24Q20.22-31.24 17.45-29.57Q14.68-27.91 13.02-25.18Q11.36-22.44 11.36-19.05L11.36-19.05L11.36 0L4.36 0L4.36-19.05Q4.36-22.99 5.85-26.49Q7.34-29.99 10.01-32.62Q12.67-35.25 16.17-36.74Q19.67-38.23 23.62-38.23L23.62-38.23L48.55-38.23Z"
                transform="translate(52.2913 65) " fill="#F56C6C" stroke="#F56C6C" stroke-width="2"
                data-glyph-w="53.537980000000005" data-glyph-h="83.52756000000001" data-glyph-ascender="66.00478"
                data-glyph-descender="-17.52278" data-kerning="0"></path>
            <path
                d="M45.09-7.00L45.09 0L20.50 0Q15.17 0 11.15-2.56Q7.13-5.13 4.92-9.49Q2.70-13.85 2.70-19.19L2.70-19.19Q2.70-24.52 4.92-28.81Q7.13-33.11 11.15-35.67Q15.17-38.23 20.50-38.23L20.50-38.23L45.09-38.23L45.09-31.24L20.50-31.24Q17.18-31.24 14.75-29.61Q12.33-27.98 11.01-25.28Q9.70-22.58 9.70-19.19L9.70-19.19Q9.70-15.79 11.01-13.02Q12.33-10.25 14.75-8.62Q17.18-7.00 20.50-7.00L20.50-7.00L45.09-7.00Z"
                transform="translate(105.82928000000001 65) " fill="#F56C6C" stroke="#F56C6C" stroke-width="2"
                data-glyph-w="47.7894" data-glyph-h="83.52756000000001" data-glyph-ascender="66.00478"
                data-glyph-descender="-17.52278" data-kerning="0"></path>
            <path
                d="M27.77-22.23L50.07 0L40.72 0L22.44-18.35L11.91-10.74L11.91 0L4.99 0L4.99-38.09L11.91-38.09L11.91-18.70L39.13-38.09L49.73-38.09L27.77-22.23Z"
                transform="translate(153.61868 65) " fill="#F56C6C" stroke="#F56C6C" stroke-width="2"
                data-glyph-w="50.35202" data-glyph-h="83.52756000000001" data-glyph-ascender="66.00478"
                data-glyph-descender="-17.52278" data-kerning="0"></path>
            <path d="M0,0Z" transform="translate(203.97070000000002 65) " fill="#F56C6C" stroke="#F56C6C"
                stroke-width="2" data-glyph-w="25.9725" data-glyph-h="83.52756000000001" data-glyph-ascender="66.00478"
                data-glyph-descender="-17.52278" data-kerning="0"></path>
            <path
                d="M44.74-7.00L44.74 0L4.99 0L4.99-38.23L44.74-38.23L44.74-31.24L11.98-31.24L11.98-7.00L44.74-7.00ZM40.31-22.79L40.31-15.79L15.24-15.79L15.24-22.79L40.31-22.79Z"
                transform="translate(229.94320000000002 65) " fill="#F56C6C" stroke="#F56C6C" stroke-width="2"
                data-glyph-w="47.4431" data-glyph-h="83.52756000000001" data-glyph-ascender="66.00478"
                data-glyph-descender="-17.52278" data-kerning="0"></path>
            <path
                d="M46.89 0L39.96 0Q39.96-4.57 38.20-8.76Q36.43-12.95 33.45-16.55Q30.47-20.15 26.80-23.06Q23.13-25.97 19.29-27.91Q15.44-29.85 11.91-30.68L11.91-30.68L11.91 0L4.99 0L4.99-38.09L8.73-38.09L8.73-38.02Q12.47-37.82 16.66-36.40Q20.85-34.98 25.07-32.48Q29.30-29.99 33.14-26.67Q36.98-23.34 39.96-19.25L39.96-19.25L39.96-38.09L46.89-38.09L46.89 0Z"
                transform="translate(277.3863 65) " fill="#F56C6C" stroke="#F56C6C" stroke-width="2"
                data-glyph-w="51.87574" data-glyph-h="83.52756000000001" data-glyph-ascender="66.00478"
                data-glyph-descender="-17.52278" data-kerning="0"></path>
            <path
                d="M50.14-19.19L50.14-19.19Q50.14-13.85 47.93-9.49Q45.71-5.13 41.69-2.56Q37.68 0 32.34 0L32.34 0L15.31 0L15.31-7.00L32.34-7.00Q35.74-7.00 38.13-8.62Q40.52-10.25 41.83-13.02Q43.15-15.79 43.15-19.19L43.15-19.19Q43.15-22.58 41.83-25.28Q40.52-27.98 38.13-29.61Q35.74-31.24 32.34-31.24L32.34-31.24L12.05-31.24L12.05 0L4.99 0L4.99-38.23L32.34-38.23Q37.68-38.23 41.69-35.67Q45.71-33.11 47.93-28.81Q50.14-24.52 50.14-19.19Z"
                transform="translate(329.26204 65) " fill="#F56C6C" stroke="#F56C6C" stroke-width="2"
                data-glyph-w="52.84538" data-glyph-h="83.52756000000001" data-glyph-ascender="66.00478"
                data-glyph-descender="-17.52278" data-kerning="0"></path>
            <path d="M0,0Z" transform="translate(382.10742 65) " fill="#F56C6C" stroke="#F56C6C" stroke-width="2"
                data-glyph-w="25.9725" data-glyph-h="83.52756000000001" data-glyph-ascender="66.00478"
                data-glyph-descender="-17.52278" data-kerning="0"></path>
            <path
                d="M44.81-38.23L44.81-31.24L11.98-31.24L11.98 0L4.99 0L4.99-38.23L44.81-38.23ZM40.31-22.79L40.31-15.79L15.24-15.79L15.24-22.79L40.31-22.79Z"
                transform="translate(408.07992 65) " fill="#F56C6C" stroke="#F56C6C" stroke-width="2"
                data-glyph-w="46.19642" data-glyph-h="83.52756000000001" data-glyph-ascender="66.00478"
                data-glyph-descender="-17.52278" data-kerning="0"></path>
            <path
                d="M49.87-19.12L49.87-19.12Q49.87-13.85 47.69-9.52Q45.50-5.19 41.56-2.60Q37.61 0 32.34 0L32.34 0L20.29 0Q15.03 0 11.05-2.60Q7.06-5.19 4.88-9.52Q2.70-13.85 2.70-19.12L2.70-19.12Q2.70-24.38 4.88-28.67Q7.06-32.97 11.05-35.53Q15.03-38.09 20.29-38.09L20.29-38.09L32.34-38.09Q37.61-38.09 41.56-35.53Q45.50-32.97 47.69-28.67Q49.87-24.38 49.87-19.12ZM42.94-19.12L42.94-19.12Q42.94-22.44 41.69-25.21Q40.45-27.98 38.06-29.61Q35.67-31.24 32.34-31.24L32.34-31.24L20.29-31.24Q16.97-31.24 14.58-29.61Q12.19-27.98 10.91-25.21Q9.63-22.44 9.63-19.12L9.63-19.12Q9.63-15.79 10.91-13.02Q12.19-10.25 14.58-8.59Q16.97-6.93 20.29-6.93L20.29-6.93L32.34-6.93Q35.67-6.93 38.06-8.59Q40.45-10.25 41.69-13.02Q42.94-15.79 42.94-19.12Z"
                transform="translate(454.27634 65) " fill="#F56C6C" stroke="#F56C6C" stroke-width="2"
                data-glyph-w="52.56834" data-glyph-h="83.52756000000001" data-glyph-ascender="66.00478"
                data-glyph-descender="-17.52278" data-kerning="0"></path>
            <path
                d="M9.70-38.09L46.47 0L37.40 0L23.55-14.27L9.70 0L0.55 0L18.98-18.98L0.55-38.09L9.70-38.09ZM37.40-38.09L46.47-38.09L30.06-21.06L25.56-25.76L37.40-38.09Z"
                transform="translate(506.84468 65) " fill="#F56C6C" stroke="#F56C6C" stroke-width="2"
                data-glyph-w="47.02754" data-glyph-h="83.52756000000001" data-glyph-ascender="66.00478"
                data-glyph-descender="-17.52278" data-kerning="0"></path>
        </g>
    </g>
</svg>